<?xml version="1.0" encoding="UTF-8" >
<!-- Generator: Adobe Illustrator 19.1.0, SVG Export Plug-In . SVG Version: 6.00 Build 0)  -->

<svg
   version="1.1"
   id="Layer_1"
   x="0px"
   y="0px"
   width="155px"
   height="20px"
 xmlns="http://www.w3.org/2000/svg"
 xmlns:xlink="http://www.w3.org/1999/xlink"
   viewBox="0 0 155 20"

   enable-background="new 0 0 155 20"

   xml:space="preserve"


   />
<g
   id="g103">
	<polygon
   fill="#8996A0"
   points="14.464,0 10.446,0 10.446,9.241 19.687,9.241 19.687,5.223 14.464,5.223  "
   id="polygon71" />
	<polygon
   fill="#003145"
   points="9.241,0 0,0 0,19.687 19.687,19.687 19.687,10.446 9.241,10.446  "
   id="polygon73" />
	<rect
   x="15.669"
   fill="#FF8000"
   width="4.018"
   height="4.018"
   id="rect75" />
	
	
	
	
	<path
   fill="#8996a0"
   d="m 29.062124,5.4485673 c -0.641,-0.465 -1.46,-0.698 -2.458,-0.698 -0.404,0 -0.802,0.04 -1.193,0.121 -0.391,0.082 -0.739,0.216 -1.043,0.405 -0.303,0.188 -0.545,0.442 -0.729,0.759 -0.181,0.317 -0.272,0.711 -0.272,1.183 0,0.446 0.131,0.806 0.395,1.083 0.262,0.278 0.612,0.504 1.051,0.681 0.438,0.174 0.934,0.318 1.487,0.432 0.553,0.116 1.114,0.24 1.688,0.374 0.575,0.136 1.138,0.2949997 1.69,0.4769997 0.553,0.181 1.049,0.427 1.487,0.737 0.438,0.311 0.79,0.702 1.052,1.176 0.263,0.471 0.395,1.064 0.395,1.779 0,0.767 -0.172,1.426 -0.516,1.971 -0.344,0.547 -0.786,0.991 -1.326,1.335 -0.539,0.343 -1.143,0.594 -1.809,0.748 -0.668,0.155 -1.33,0.233 -1.994,0.233 -0.809,0 -1.573,-0.101 -2.295,-0.303 -0.722,-0.204 -1.354,-0.509 -1.901,-0.922 -0.547,-0.41 -0.978,-0.937 -1.295,-1.576 -0.317,-0.641 -0.474,-1.399 -0.474,-2.275 h 1.819 c 0,0.606 0.119,1.129 0.355,1.566 0.235,0.44 0.546,0.799 0.93,1.083 0.385,0.282 0.832,0.493 1.346,0.627 0.511,0.135 1.038,0.202 1.577,0.202 0.43,0 0.866,-0.039 1.304,-0.122 0.438,-0.08 0.834,-0.22 1.184,-0.415 0.351,-0.195 0.634,-0.46 0.851,-0.798 0.214,-0.336 0.322,-0.768 0.322,-1.294 0,-0.498 -0.131,-0.903 -0.393,-1.214 -0.263,-0.309 -0.614,-0.562 -1.051,-0.759 -0.44,-0.196 -0.935,-0.353 -1.487,-0.475 -0.554,-0.122 -1.117,-0.245 -1.69,-0.374 -0.574,-0.128 -1.137,-0.276 -1.689,-0.446 -0.554,-0.168 -1.049,-0.391 -1.487,-0.666 -0.439,-0.2769997 -0.79,-0.6339997 -1.053,-1.0729997 -0.264,-0.438 -0.394,-0.989 -0.394,-1.65 0,-0.729 0.148,-1.358 0.446,-1.892 0.297,-0.532 0.689,-0.97 1.182,-1.314 0.491,-0.345 1.052,-0.6 1.679,-0.769 0.627,-0.168 1.27,-0.253 1.932,-0.253 0.74,0 1.429,0.088 2.065,0.262 0.631,0.175 1.189,0.453 1.667,0.83 0.478,0.378 0.856,0.853 1.132,1.425 0.277,0.574 0.429,1.259 0.456,2.055 h -1.821 c -0.107,-1.039 -0.481,-1.791 -1.122,-2.256 z"
   id="path85" />
	<path
   fill="#8996a0"
   d="m 34.033124,10.547567 c 0.216,-0.6669997 0.54,-1.2479997 0.971,-1.7389997 0.432,-0.496 0.964,-0.883 1.599,-1.164 0.634,-0.284 1.363,-0.426 2.184,-0.426 0.836,0 1.567,0.142 2.194,0.426 0.627,0.282 1.157,0.669 1.588,1.164 0.43,0.491 0.755,1.072 0.97,1.7389997 0.215,0.669 0.325,1.386 0.325,2.155 0,0.767 -0.11,1.483 -0.325,2.144 -0.215,0.662 -0.541,1.236 -0.97,1.73 -0.431,0.491 -0.961,0.875 -1.588,1.153 -0.627,0.276 -1.358,0.413 -2.194,0.413 -0.821,0 -1.551,-0.137 -2.184,-0.413 -0.635,-0.278 -1.167,-0.662 -1.599,-1.153 -0.431,-0.494 -0.754,-1.068 -0.971,-1.73 -0.215,-0.661 -0.324,-1.377 -0.324,-2.144 0,-0.769 0.109,-1.486 0.324,-2.155 z m 1.75,3.844 c 0.167,0.491 0.4,0.904 0.697,1.234 0.296,0.33 0.645,0.582 1.041,0.758 0.399,0.176 0.819,0.262 1.265,0.262 0.444,0 0.867,-0.087 1.264,-0.262 0.399,-0.176 0.746,-0.429 1.043,-0.758 0.296,-0.33 0.53,-0.743 0.698,-1.234 0.168,-0.494 0.253,-1.055 0.253,-1.689 0,-0.633 -0.085,-1.198 -0.253,-1.688 -0.168,-0.493 -0.402,-0.907 -0.698,-1.2459997 -0.296,-0.336 -0.644,-0.593 -1.043,-0.768 -0.397,-0.177 -0.819,-0.262 -1.264,-0.262 -0.446,0 -0.866,0.086 -1.265,0.262 -0.397,0.175 -0.745,0.432 -1.041,0.768 -0.297,0.3389997 -0.531,0.7519997 -0.697,1.2459997 -0.169,0.49 -0.253,1.055 -0.253,1.688 0,0.634 0.084,1.196 0.253,1.689 z"
   id="path87" />
	<path
   fill="#8996a0"
   d="M 47.169124,3.4765673 V 17.920567 h -1.72 V 3.4765673 Z"
   id="path89" />
	<path
   fill="#8996a0"
   d="m 56.407124,17.921567 v -1.659 h -0.04 c -0.365,0.647 -0.83,1.122 -1.395,1.426 -0.566,0.304 -1.234,0.455 -2.004,0.455 -0.688,0 -1.259,-0.09 -1.719,-0.273 -0.46,-0.182 -0.83,-0.44 -1.112,-0.779 -0.285,-0.337 -0.482,-0.738 -0.597,-1.204 -0.112,-0.465 -0.171,-0.979 -0.171,-1.547 V 7.4615673 h 1.72 v 7.0819997 c 0,0.647 0.188,1.16 0.567,1.536 0.376,0.38 0.895,0.567 1.556,0.567 0.526,0 0.982,-0.081 1.367,-0.242 0.382,-0.162 0.705,-0.391 0.958,-0.686 0.256,-0.298 0.449,-0.646 0.577,-1.045 0.129,-0.395 0.192,-0.832 0.192,-1.304 V 7.4615673 h 1.721 V 17.920567 h -1.62 z"
   id="path91" />
	<path
   fill="#8996a0"
   d="m 64.798124,7.4615673 v 1.52 h -2.084 v 6.4919997 c 0,0.202 0.016,0.363 0.05,0.485 0.033,0.12 0.097,0.215 0.194,0.283 0.092,0.069 0.222,0.112 0.394,0.132 0.166,0.02 0.385,0.03 0.656,0.03 h 0.79 v 1.517 h -1.317 c -0.444,0 -0.823,-0.029 -1.141,-0.091 -0.319,-0.061 -0.576,-0.171 -0.77,-0.335 -0.197,-0.162 -0.341,-0.39 -0.433,-0.686 -0.094,-0.297 -0.143,-0.688 -0.143,-1.172 V 8.9815673 h -1.778 v -1.52 h 1.778 v -3.136 h 1.721 v 3.136 z"
   id="path93" />
	<path
   fill="#8996a0"
   d="m 66.507124,5.5795673 v -2.103 h 1.721 v 2.103 h -1.721 z m 1.721,1.882 V 17.920567 h -1.721 V 7.4615673 Z"
   id="path95" />
	<path
   fill="#8996a0"
   d="m 70.136124,10.547567 c 0.215,-0.6669997 0.538,-1.2479997 0.969,-1.7389997 0.434,-0.496 0.966,-0.883 1.599,-1.164 0.634,-0.284 1.363,-0.426 2.185,-0.426 0.835,0 1.565,0.142 2.195,0.426 0.627,0.282 1.156,0.669 1.588,1.164 0.431,0.491 0.755,1.072 0.969,1.7389997 0.218,0.669 0.327,1.386 0.327,2.155 0,0.767 -0.108,1.483 -0.327,2.144 -0.214,0.662 -0.537,1.236 -0.969,1.73 -0.432,0.491 -0.962,0.875 -1.588,1.153 -0.63,0.276 -1.359,0.413 -2.195,0.413 -0.821,0 -1.55,-0.137 -2.185,-0.413 -0.633,-0.278 -1.165,-0.662 -1.599,-1.153 -0.431,-0.494 -0.754,-1.068 -0.969,-1.73 -0.215,-0.661 -0.326,-1.377 -0.326,-2.144 0.001,-0.769 0.111,-1.486 0.326,-2.155 z m 1.749,3.844 c 0.169,0.491 0.401,0.904 0.697,1.234 0.295,0.33 0.644,0.582 1.042,0.758 0.397,0.176 0.818,0.262 1.264,0.262 0.445,0 0.866,-0.087 1.265,-0.262 0.397,-0.176 0.745,-0.429 1.041,-0.758 0.297,-0.33 0.528,-0.743 0.697,-1.234 0.169,-0.494 0.255,-1.055 0.255,-1.689 0,-0.633 -0.087,-1.198 -0.255,-1.688 -0.17,-0.493 -0.401,-0.907 -0.697,-1.2459997 -0.296,-0.336 -0.643,-0.593 -1.041,-0.768 -0.4,-0.177 -0.821,-0.262 -1.265,-0.262 -0.446,0 -0.867,0.086 -1.264,0.262 -0.398,0.175 -0.747,0.432 -1.042,0.768 -0.296,0.3389997 -0.528,0.7519997 -0.697,1.2459997 -0.17,0.49 -0.253,1.055 -0.253,1.688 0,0.634 0.083,1.196 0.253,1.689 z"
   id="path97" />
	<path
   fill="#8996a0"
   d="m 83.166124,7.4615673 v 1.661 h 0.041 c 0.714,-1.271 1.847,-1.904 3.398,-1.904 0.688,0 1.262,0.094 1.718,0.285 0.46,0.187 0.832,0.45 1.113,0.787 0.284,0.339 0.482,0.74 0.596,1.206 0.116,0.466 0.174,0.9809997 0.174,1.5489997 v 6.876 h -1.719 v -7.081 c 0,-0.645 -0.189,-1.1569997 -0.567,-1.5349997 -0.377,-0.38 -0.898,-0.567 -1.558,-0.567 -0.526,0 -0.978,0.08 -1.366,0.243 -0.383,0.162 -0.705,0.391 -0.962,0.686 -0.255,0.298 -0.448,0.6459997 -0.575,1.0419997 -0.127,0.4 -0.191,0.834 -0.191,1.306 v 5.906 h -1.72 V 7.4615673 Z"
   id="path99" />
	<path
   fill="#8996a0"
   d="m 93.671124,15.584567 c 0.161,0.263 0.374,0.473 0.636,0.627 0.264,0.155 0.561,0.267 0.889,0.334 0.331,0.069 0.675,0.101 1.025,0.101 0.27,0 0.551,-0.02 0.848,-0.059 0.298,-0.042 0.569,-0.115 0.819,-0.225 0.249,-0.108 0.455,-0.265 0.616,-0.475 0.162,-0.207 0.246,-0.475 0.246,-0.799 0,-0.444 -0.172,-0.782 -0.508,-1.012 -0.338,-0.228 -0.759,-0.414 -1.264,-0.557 -0.505,-0.14 -1.054,-0.268 -1.65,-0.382 -0.592,-0.115 -1.14,-0.277 -1.646,-0.487 -0.507,-0.209 -0.927,-0.503 -1.265,-0.879 -0.338,-0.376 -0.508,-0.903 -0.508,-1.577 0,-0.5279997 0.119,-0.9779997 0.354,-1.3569997 0.237,-0.378 0.54,-0.686 0.912,-0.922 0.369,-0.235 0.789,-0.41 1.255,-0.526 0.462,-0.115 0.925,-0.172 1.384,-0.172 0.595,0 1.14,0.051 1.639,0.152 0.499,0.101 0.94,0.277 1.325,0.526 0.383,0.248 0.69,0.586 0.92,1.013 0.23,0.424 0.364996,0.955 0.402996,1.5879997 h -1.716996 c -0.027,-0.336 -0.115,-0.6169997 -0.262,-0.8379997 -0.149,-0.223 -0.337,-0.402 -0.567,-0.537 -0.23,-0.135 -0.484,-0.234 -0.759,-0.294 -0.276,-0.06 -0.556,-0.09 -0.838,-0.09 -0.258,0 -0.517,0.019 -0.781,0.059 -0.26,0.041 -0.502,0.112 -0.718,0.213 -0.215,0.101 -0.39,0.236 -0.527,0.404 -0.134,0.17 -0.201,0.389 -0.201,0.6589997 0,0.298 0.102,0.542 0.314,0.739 0.208,0.195 0.475,0.357 0.799,0.484 0.322,0.129 0.687,0.237 1.092,0.323 0.404,0.088 0.809,0.181 1.214,0.275 0.43,0.094 0.851,0.209 1.264,0.342 0.413,0.136 0.777,0.314 1.093,0.536 0.316,0.222 0.570996,0.504 0.767996,0.84 0.195,0.338 0.292,0.755 0.292,1.254 0,0.634 -0.132,1.159 -0.395,1.578 -0.262996,0.417 -0.605996,0.755 -1.027996,1.011 -0.425,0.259 -0.906,0.436 -1.438,0.536 -0.532,0.101 -1.064,0.151 -1.588,0.151 -0.581,0 -1.132,-0.06 -1.659,-0.18 -0.527,-0.124 -0.991,-0.322 -1.394,-0.599 -0.403,-0.276 -0.729,-0.64 -0.971,-1.091 -0.244,-0.451 -0.378,-1.002 -0.405,-1.65 h 1.718 c 0.014,0.381 0.101,0.699 0.264,0.963 z"
   id="path101" />
</g><path
   style="fill:#8996a0;fill-opacity:1;stroke-width:0.0411967"
   d="m 12.923575,16.181785 v -1.649227 l 1.70546,0.0137 c 1.479911,0.01188 1.766112,0.02177 2.164071,0.07477 0.613281,0.08167 0.952517,0.159956 1.387059,0.320094 1.801356,0.663837 1.52582,2.115832 -0.498499,2.62695 -0.825283,0.208374 -1.134711,0.233629 -3.052631,0.249145 l -1.70546,0.0138 z m 3.483167,1.215637 c 0.456102,-0.0584 0.984639,-0.195835 1.276064,-0.331805 0.481272,-0.224546 0.748989,-0.686671 0.631096,-1.089379 -0.123054,-0.420337 -0.521659,-0.703865 -1.234163,-0.877861 -0.604955,-0.147732 -0.947552,-0.179721 -2.106745,-0.19671 l -1.07487,-0.01575 v 1.295866 1.295866 l 1.07487,-0.01713 c 0.669898,-0.01068 1.210082,-0.03445 1.433748,-0.06309 z"
   id="path1072-7" />
<path
   fill="#8996a0"
   d="M 5.1940119,2.8227196 V 18.031546 H 2.1483128 V 2.8227196 Z"
   id="path89-7"
   style="stroke-width:1.36547" /><path
   style="fill:#8996a0;fill-opacity:1;stroke-width:0.0434824"
   d="m 6.1441052,16.045162 v -1.837309 l 1.7054601,0.01526 c 1.4799109,0.01324 1.766112,0.02426 2.1640707,0.0833 0.613281,0.09098 0.952517,0.178198 1.387059,0.356599 1.801356,0.739542 1.52582,2.357126 -0.498499,2.926533 -0.825283,0.232138 -1.1347114,0.260273 -3.0526307,0.277559 l -1.7054601,0.01537 z m 3.4831668,1.354272 c 0.456102,-0.06507 0.984639,-0.218169 1.276064,-0.369645 0.481272,-0.250154 0.748989,-0.764982 0.631096,-1.213616 C 11.411378,15.347901 11.012773,15.032039 10.300269,14.8382 9.695314,14.67362 9.3527171,14.637982 8.1935236,14.619056 l -1.0748697,-0.01755 v 1.44365 1.44365 l 1.0748697,-0.01909 c 0.6698979,-0.01189 1.2100822,-0.03838 1.4337484,-0.07028 z"
   id="path1072" /></svg>
