<?xml version="1.0" encoding="UTF-8" standalone="no"?>
<svg
   enable-background="new 0 0 0 0"
   version="1.1"
   viewBox="0 0 67.690803 19.669454"
   xml:space="preserve"
   id="svg220"
   sodipodi:docname="logoN1.svg"
   width="67.690804"
   height="19.669455"
   inkscape:version="1.2.1 (9c6d41e4, 2022-07-14)"
   xmlns:inkscape="http://www.inkscape.org/namespaces/inkscape"
   xmlns:sodipodi="http://sodipodi.sourceforge.net/DTD/sodipodi-0.dtd"
   xmlns="http://www.w3.org/2000/svg"
   xmlns:svg="http://www.w3.org/2000/svg"><defs
   id="defs224" /><sodipodi:namedview
   id="namedview222"
   pagecolor="#ffffff"
   bordercolor="#000000"
   borderopacity="0.25"
   inkscape:showpageshadow="2"
   inkscape:pageopacity="0.0"
   inkscape:pagecheckerboard="0"
   inkscape:deskcolor="#d1d1d1"
   showgrid="false"
   inkscape:zoom="4.7440142"
   inkscape:cx="33.51592"
   inkscape:cy="2.6348993"
   inkscape:window-width="1680"
   inkscape:window-height="997"
   inkscape:window-x="0"
   inkscape:window-y="25"
   inkscape:window-maximized="1"
   inkscape:current-layer="svg220" />

	
	
	
	
	
	
	
	<path
   d="m 26.544301,5.4572443 c -0.454791,-0.465 -1.035874,-0.698 -1.743958,-0.698 -0.286639,0 -0.569021,0.04 -0.846437,0.121 -0.277415,0.082 -0.524322,0.216 -0.740011,0.405 -0.21498,0.188 -0.386679,0.442 -0.517228,0.759 -0.12842,0.317 -0.192985,0.711 -0.192985,1.183 0,0.446 0.09295,0.806 0.280254,1.083 0.18589,0.278 0.434216,0.504 0.745688,0.681 0.310762,0.174 0.662675,0.318 1.05503,0.432 0.392356,0.116 0.790387,0.24 1.197641,0.374 0.407965,0.136 0.807415,0.2949997 1.19906,0.4769997 0.392355,0.181 0.744269,0.427 1.055031,0.737 0.310762,0.311 0.560507,0.702 0.746397,1.176 0.186599,0.471 0.280254,1.064 0.280254,1.779 0,0.767 -0.122035,1.426 -0.366104,1.971 -0.244069,0.547 -0.557669,0.991 -0.940801,1.335 -0.382422,0.343 -0.810961,0.594 -1.28349,0.748 -0.473948,0.155 -0.943639,0.233 -1.414749,0.233 -0.573988,0 -1.116048,-0.101 -1.628309,-0.303 -0.512261,-0.204 -0.960667,-0.509 -1.348765,-0.922 -0.388098,-0.41 -0.693894,-0.937 -0.918807,-1.576 -0.224912,-0.641 -0.336304,-1.399 -0.336304,-2.275 h 1.290586 c 0,0.606 0.08443,1.129 0.251873,1.566 0.166734,0.44 0.387389,0.799 0.659838,1.083 0.273159,0.282 0.590306,0.493 0.954991,0.627 0.362556,0.135 0.736464,0.202 1.118886,0.202 0.305086,0 0.61443,-0.039 0.925192,-0.122 0.310762,-0.08 0.591725,-0.22 0.840051,-0.415 0.249036,-0.195 0.449825,-0.46 0.603787,-0.798 0.151834,-0.336 0.22846,-0.768 0.22846,-1.294 0,-0.498 -0.09295,-0.903 -0.278834,-1.214 -0.1866,-0.309 -0.435635,-0.562 -0.745688,-0.759 -0.312181,-0.196 -0.663385,-0.353 -1.055031,-0.475 -0.393064,-0.122 -0.792515,-0.245 -1.19906,-0.374 -0.407254,-0.128 -0.806705,-0.276 -1.19835,-0.446 -0.393065,-0.168 -0.744269,-0.391 -1.055031,-0.666 -0.311472,-0.2769997 -0.560507,-0.6339997 -0.747107,-1.0729997 -0.187308,-0.438 -0.279544,-0.989 -0.279544,-1.65 0,-0.729 0.105007,-1.358 0.316439,-1.892 0.210722,-0.532 0.488847,-0.97 0.838632,-1.314 0.348366,-0.345 0.746397,-0.6 1.191255,-0.769 0.444859,-0.168 0.901069,-0.253 1.37076,-0.253 0.525032,0 1.01388,0.088 1.465124,0.262 0.447696,0.175 0.843599,0.453 1.182741,0.83 0.339142,0.378 0.607334,0.853 0.803157,1.425 0.196533,0.574 0.304377,1.259 0.323534,2.055 h -1.292005 c -0.07592,-1.039 -0.341271,-1.791 -0.796063,-2.256 z"
   fill="#8996a0"
   id="path196"
   style="fill:#822e00;fill-opacity:1;stroke-width:0.84232" />
	<path
   d="m 29.751538,10.556644 c 0.145886,-0.6669997 0.364716,-1.2479997 0.655814,-1.7389997 0.291773,-0.496 0.651086,-0.883 1.079965,-1.164 0.428204,-0.284 0.920571,-0.426 1.475075,-0.426 0.564634,0 1.058352,0.142 1.481828,0.426 0.423476,0.282 0.781439,0.669 1.072536,1.164 0.290422,0.491 0.509928,1.072 0.655139,1.7389997 0.145211,0.669 0.219505,1.386 0.219505,2.155 0,0.767 -0.07429,1.483 -0.219505,2.144 -0.145211,0.662 -0.365392,1.236 -0.655139,1.73 -0.291097,0.491 -0.64906,0.875 -1.072536,1.153 -0.423476,0.276 -0.917194,0.413 -1.481828,0.413 -0.554504,0 -1.047547,-0.137 -1.475075,-0.413 -0.428879,-0.278 -0.788192,-0.662 -1.079965,-1.153 -0.291098,-0.494 -0.509252,-1.068 -0.655814,-1.73 -0.145211,-0.661 -0.21883,-1.377 -0.21883,-2.144 0,-0.769 0.07362,-1.486 0.21883,-2.155 z m 1.181951,3.844 c 0.112791,0.491 0.27016,0.904 0.470754,1.234 0.199918,0.33 0.435633,0.582 0.703092,0.758 0.269484,0.176 0.553153,0.262 0.854381,0.262 0.299878,0 0.585572,-0.087 0.853706,-0.262 0.269485,-0.176 0.503849,-0.429 0.704443,-0.758 0.199919,-0.33 0.357962,-0.743 0.47143,-1.234 0.113467,-0.494 0.170876,-1.055 0.170876,-1.689 0,-0.633 -0.05741,-1.198 -0.170876,-1.688 -0.113468,-0.493 -0.271511,-0.907 -0.47143,-1.2459997 -0.199918,-0.336 -0.434958,-0.593 -0.704443,-0.768 -0.268134,-0.177 -0.553153,-0.262 -0.853706,-0.262 -0.301228,0 -0.584897,0.086 -0.854381,0.262 -0.268134,0.175 -0.503174,0.432 -0.703092,0.768 -0.200594,0.3389997 -0.358638,0.7519997 -0.470754,1.2459997 -0.114143,0.49 -0.170877,1.055 -0.170877,1.688 0,0.634 0.05673,1.196 0.170877,1.689 z"
   fill="#8996a0"
   id="path198"
   style="fill:#822e00;fill-opacity:1;stroke-width:0.821828" />
	<path
   d="M 38.623598,3.4852443 V 17.929244 H 37.46191 V 3.4852443 Z"
   fill="#8996a0"
   id="path200"
   style="fill:#822e00;fill-opacity:1;stroke-width:0.821828" />
	<path
   d="m 44.862948,17.930644 v -1.659 h -0.02702 c -0.246521,0.647 -0.560582,1.122 -0.942184,1.426 -0.382276,0.304 -0.833444,0.455 -1.353502,0.455 -0.464676,0 -0.850329,-0.09 -1.161014,-0.273 -0.310684,-0.182 -0.560582,-0.44 -0.751045,-0.779 -0.192489,-0.337 -0.325543,-0.738 -0.403214,-1.204 -0.07565,-0.465 -0.115494,-0.979 -0.115494,-1.547 V 7.4706443 h 1.161689 v 7.0819997 c 0,0.647 0.126976,1.16 0.382952,1.536 0.253951,0.38 0.604484,0.567 1.050923,0.567 0.355261,0 0.663244,-0.081 0.923273,-0.242 0.258003,-0.162 0.476157,-0.391 0.647034,-0.686 0.172902,-0.298 0.303254,-0.646 0.389706,-1.045 0.08713,-0.395 0.129676,-0.832 0.129676,-1.304 V 7.4706443 h 1.162365 V 17.929644 h -1.094145 z"
   fill="#8996a0"
   id="path202"
   style="fill:#822e00;fill-opacity:1;stroke-width:0.821828" />
	<path
   d="m 50.530233,7.4702443 v 1.52 h -1.407534 v 6.4919997 c 0,0.202 0.01081,0.363 0.03377,0.485 0.02229,0.12 0.06551,0.215 0.131027,0.283 0.06214,0.069 0.149939,0.112 0.266108,0.132 0.112117,0.02 0.260029,0.03 0.443063,0.03 h 0.533566 v 1.517 h -0.889502 c -0.299878,0 -0.555855,-0.029 -0.770632,-0.091 -0.215453,-0.061 -0.389031,-0.171 -0.520058,-0.335 -0.133054,-0.162 -0.230312,-0.39 -0.292449,-0.686 -0.06349,-0.297 -0.09658,-0.688 -0.09658,-1.172 V 8.9902443 h -1.200864 v -1.52 h 1.200862 v -3.136 h 1.162364 v 3.136 z"
   fill="#8996a0"
   id="path204"
   style="fill:#822e00;fill-opacity:1;stroke-width:0.821828" />
	<path
   d="m 51.684493,5.5882443 v -2.103 h 1.162364 v 2.103 z m 1.162364,1.882 V 17.929244 H 51.684493 V 7.4702443 Z"
   fill="#8996a0"
   id="path206"
   style="fill:#822e00;fill-opacity:1;stroke-width:0.821828" />
	<path
   d="m 54.135521,10.556644 c 0.145211,-0.6669997 0.363365,-1.2479997 0.654463,-1.7389997 0.293124,-0.496 0.652437,-0.883 1.079965,-1.164 0.428204,-0.284 0.920571,-0.426 1.47575,-0.426 0.56396,0 1.057002,0.142 1.482505,0.426 0.423476,0.282 0.780762,0.669 1.072535,1.164 0.291098,0.491 0.509928,1.072 0.654464,1.7389997 0.147237,0.669 0.220855,1.386 0.220855,2.155 0,0.767 -0.07294,1.483 -0.220855,2.144 -0.144536,0.662 -0.362691,1.236 -0.654464,1.73 -0.291773,0.491 -0.649735,0.875 -1.072535,1.153 -0.425503,0.276 -0.91787,0.413 -1.482505,0.413 -0.554503,0 -1.04687,-0.137 -1.47575,-0.413 -0.427528,-0.278 -0.786841,-0.662 -1.079965,-1.153 -0.291098,-0.494 -0.509252,-1.068 -0.654463,-1.73 -0.145211,-0.661 -0.220181,-1.377 -0.220181,-2.144 6.76e-4,-0.769 0.07497,-1.486 0.220181,-2.155 z m 1.181275,3.844 c 0.114143,0.491 0.270836,0.904 0.470755,1.234 0.199243,0.33 0.434958,0.582 0.703767,0.758 0.268134,0.176 0.552477,0.262 0.853706,0.262 0.300553,0 0.584897,-0.087 0.854382,-0.262 0.268134,-0.176 0.503173,-0.429 0.703092,-0.758 0.200594,-0.33 0.356611,-0.743 0.470754,-1.234 0.114142,-0.494 0.172227,-1.055 0.172227,-1.689 0,-0.633 -0.05876,-1.198 -0.172227,-1.688 -0.114818,-0.493 -0.270836,-0.907 -0.470754,-1.2459997 -0.199919,-0.336 -0.434283,-0.593 -0.703092,-0.768 -0.27016,-0.177 -0.554504,-0.262 -0.854382,-0.262 -0.301229,0 -0.585572,0.086 -0.853706,0.262 -0.268809,0.175 -0.504524,0.432 -0.703767,0.768 -0.199919,0.3389997 -0.356612,0.7519997 -0.470755,1.2459997 -0.114818,0.49 -0.170876,1.055 -0.170876,1.688 0,0.634 0.05606,1.196 0.170876,1.689 z"
   fill="#8996a0"
   id="path208"
   style="fill:#822e00;fill-opacity:1;stroke-width:0.821828" />
	<path
   d="m 62.935989,7.4702443 v 1.661 h 0.02769 c 0.482236,-1.271 1.247464,-1.904 2.29501,-1.904 0.464676,0 0.852356,0.094 1.160338,0.285 0.310685,0.187 0.561934,0.45 0.751721,0.787 0.191814,0.339 0.325543,0.74 0.402539,1.206 0.07835,0.466 0.11752,0.9809997 0.11752,1.5489997 v 6.876 h -1.161014 v -7.081 c 0,-0.645 -0.127651,-1.1569997 -0.382952,-1.5349997 -0.254626,-0.38 -0.60651,-0.567 -1.052274,-0.567 -0.355261,0 -0.660542,0.08 -0.922597,0.243 -0.258678,0.162 -0.476157,0.391 -0.649735,0.686 -0.172227,0.298 -0.30258,0.6459997 -0.388355,1.0419997 -0.08578,0.4 -0.129002,0.834 -0.129002,1.306 v 5.906 H 61.843189 V 7.4702443 Z"
   fill="#8996a0"
   id="path210"
   style="fill:#822e00;fill-opacity:1;stroke-width:0.821828" />


<polygon
   points="9.241,10.446 9.241,0 0,0 0,19.687 19.687,19.687 19.687,10.446 "
   fill="#8996a0"
   id="polygon228"
   transform="matrix(1.0136494,0,0,0.99616687,0,0.05791796)"
   style="fill:#004b82;fill-opacity:1" /><path
   d="M 10.352719,4.7353991 V 0.13829013 h 4.055385 V 5.4164891 h 5.263449 v 3.916018 h -9.318834 z"
   fill="#acb4b9"
   stroke-width="0.0857062"
   id="path230"
   style="fill:#822e00;fill-opacity:1" /><path
   d="M 15.28586,2.0016996 V 0 h 4.377252 V 4.0033997 H 15.28586 Z"
   fill="#cccfd1"
   stroke-width="0.0910051"
   id="path232"
   style="fill:#826f00;fill-opacity:1" /><g
   id="g700"
   transform="translate(35.464226,9.2303169)"
   style="fill:#f9f9f9;fill-opacity:1"><path
     d="m -22.467284,5.6422417 v -2.344 l 1.3614,0.01947 c 1.1813,0.01688 1.4098,0.03094 1.7275,0.10627 0.48954,0.11608 0.76034,0.22735 1.1072,0.45494 1.4379,0.9435 1.218,3.0071 -0.39792,3.7337 -0.65877,0.29615 -0.90576,0.33205 -2.4367,0.3541 l -1.3614,0.01961 z m 2.7804,1.7277 c 0.36408,-0.083 0.78598,-0.27834 1.0186,-0.47158 0.38417,-0.31915 0.59787,-0.97595 0.50377,-1.5483 -0.09822,-0.59742 -0.41641,-1.0004 -0.98518,-1.2477 -0.4829,-0.20996 -0.75637,-0.25543 -1.6816,-0.27958 l -0.85802,-0.02238 v 3.6835 l 0.85802,-0.02435 c 0.53474,-0.01518 0.96595,-0.04896 1.1444,-0.08967 z"
     fill="#eff2f2"
     stroke-width="0.036807"
     id="path212"
     style="fill:#f9f9f9;fill-opacity:1" /><path
     d="m -29.247184,5.4182417 v -2.6189 l 1.4073,0.02175 c 1.2211,0.01887 1.4573,0.03458 1.7857,0.11874 0.50604,0.12968 0.78596,0.25401 1.1446,0.50831 1.4864,1.0542 1.259,3.3599 -0.41133,4.1715 -0.68097,0.3309 -0.93628,0.371 -2.5188,0.39564 l -1.4073,0.02191 z m 2.8741,1.9305 c 0.37635,-0.09275 0.81246,-0.31098 1.053,-0.5269 0.39711,-0.35657 0.61802,-1.0904 0.52074,-1.7299 -0.10153,-0.66749 -0.43044,-1.1177 -1.0184,-1.394 -0.49918,-0.2346 -0.78186,-0.2854 -1.7383,-0.31237 l -0.88694,-0.02502 v 4.1156 l 0.88694,-0.02721 c 0.55276,-0.01695 0.9985,-0.05471 1.183,-0.10018 z"
     fill="#eff2f2"
     stroke-width="0.039498"
     id="path214"
     style="fill:#f9f9f9;fill-opacity:1" /><text
     x="-33.567463"
     y="8.0460634"
     fill="#000000"
     xml:space="preserve"
     id="text218"
     style="fill:#f9f9f9;fill-opacity:1"><tspan
       x="-33.567463"
       y="8.0460634"
       fill="#ffffff"
       font-family="arial"
       id="tspan216"
       style="fill:#f9f9f9;fill-opacity:1">I</tspan></text></g></svg>
