<?xml version="1.0" encoding="utf-8"?>
<!-- Generator: Adobe Illustrator 19.1.0, SVG Export Plug-In . SVG Version: 6.00 Build 0)  -->
<svg version="1.1" id="Layer_1" xmlns="http://www.w3.org/2000/svg" xmlns:xlink="http://www.w3.org/1999/xlink" x="0px" y="0px"
	 width="155px" height="20px" viewBox="0 0 155 20" enable-background="new 0 0 155 20" xml:space="preserve">
<g>
	<polygon fill="#8996A0" points="14.464,0 10.446,0 10.446,9.241 19.687,9.241 19.687,5.223 14.464,5.223 	"/>
	<polygon fill="#003145" points="9.241,0 0,0 0,19.687 19.687,19.687 19.687,10.446 9.241,10.446 	"/>
	<rect x="15.669" fill="#FF8000" width="4.018" height="4.018"/>
	<path fill="#003145" d="M36.439,5.232l5.402,14.444h-3.298l-1.091-3.216h-5.4l-1.133,3.216h-3.195l5.461-14.444H36.439z
		 M36.622,14.094l-1.821-5.302h-0.039l-1.882,5.302H36.622z"/>
	<path fill="#003145" d="M45.665,5.232v7.749l3.621-3.764h3.398l-3.944,3.845l4.39,6.614h-3.48l-2.87-4.673l-1.114,1.073v3.6h-2.871
		V5.232H45.665z"/>
	<path fill="#003145" d="M56.378,17.168c0.432,0.419,1.05,0.627,1.86,0.627c0.579,0,1.078-0.144,1.496-0.435
		c0.418-0.29,0.675-0.596,0.77-0.921h2.528c-0.404,1.254-1.025,2.15-1.861,2.69c-0.836,0.54-1.848,0.811-3.035,0.811
		c-0.823,0-1.562-0.132-2.226-0.397c-0.66-0.264-1.219-0.637-1.678-1.122c-0.458-0.487-0.812-1.064-1.06-1.74
		c-0.251-0.672-0.377-1.414-0.377-2.224c0-0.781,0.13-1.51,0.386-2.184c0.256-0.675,0.62-1.257,1.09-1.75
		c0.473-0.495,1.036-0.882,1.691-1.164c0.654-0.284,1.379-0.426,2.174-0.426c0.892,0,1.666,0.172,2.327,0.515
		c0.66,0.345,1.202,0.807,1.629,1.389c0.423,0.581,0.731,1.24,0.918,1.983c0.19,0.741,0.256,1.516,0.204,2.326h-7.547
		C55.71,16.077,55.945,16.751,56.378,17.168z M59.624,11.666c-0.344-0.377-0.867-0.565-1.568-0.565
		c-0.459,0-0.839,0.077-1.143,0.232c-0.303,0.155-0.546,0.347-0.728,0.577c-0.182,0.229-0.31,0.471-0.385,0.728
		c-0.074,0.257-0.118,0.486-0.132,0.688h4.674C60.206,12.596,59.967,12.045,59.624,11.666z"/>
	<path fill="#003145" d="M67.472,9.217v1.945h0.041c0.135-0.324,0.316-0.625,0.545-0.902c0.229-0.278,0.492-0.515,0.788-0.709
		c0.297-0.196,0.613-0.348,0.951-0.456c0.338-0.107,0.688-0.161,1.052-0.161c0.187,0,0.397,0.034,0.627,0.101v2.672
		c-0.136-0.027-0.299-0.05-0.486-0.071c-0.187-0.02-0.371-0.03-0.545-0.03c-0.526,0-0.971,0.088-1.336,0.264
		c-0.364,0.175-0.656,0.413-0.879,0.717c-0.223,0.303-0.381,0.657-0.474,1.062c-0.096,0.405-0.142,0.842-0.142,1.314v4.713h-2.873
		V9.217H67.472z"/>
	<path fill="#8996A0" d="M80.722,7.204c-0.641-0.465-1.46-0.698-2.458-0.698c-0.404,0-0.802,0.04-1.193,0.121
		c-0.391,0.082-0.739,0.216-1.043,0.405c-0.303,0.188-0.545,0.442-0.729,0.759c-0.181,0.317-0.272,0.711-0.272,1.183
		c0,0.446,0.131,0.806,0.395,1.083c0.262,0.278,0.612,0.504,1.051,0.681c0.438,0.174,0.934,0.318,1.487,0.432
		c0.553,0.116,1.114,0.24,1.688,0.374c0.575,0.136,1.138,0.295,1.69,0.477c0.553,0.181,1.049,0.427,1.487,0.737
		c0.438,0.311,0.79,0.702,1.052,1.176c0.263,0.471,0.395,1.064,0.395,1.779c0,0.767-0.172,1.426-0.516,1.971
		c-0.344,0.547-0.786,0.991-1.326,1.335c-0.539,0.343-1.143,0.594-1.809,0.748C79.953,19.922,79.291,20,78.627,20
		c-0.809,0-1.573-0.101-2.295-0.303c-0.722-0.204-1.354-0.509-1.901-0.922c-0.547-0.41-0.978-0.937-1.295-1.576
		c-0.317-0.641-0.474-1.399-0.474-2.275h1.819c0,0.606,0.119,1.129,0.355,1.566c0.235,0.44,0.546,0.799,0.93,1.083
		c0.385,0.282,0.832,0.493,1.346,0.627c0.511,0.135,1.038,0.202,1.577,0.202c0.43,0,0.866-0.039,1.304-0.122
		c0.438-0.08,0.834-0.22,1.184-0.415c0.351-0.195,0.634-0.46,0.851-0.798c0.214-0.336,0.322-0.768,0.322-1.294
		c0-0.498-0.131-0.903-0.393-1.214c-0.263-0.309-0.614-0.562-1.051-0.759c-0.44-0.196-0.935-0.353-1.487-0.475
		c-0.554-0.122-1.117-0.245-1.69-0.374c-0.574-0.128-1.137-0.276-1.689-0.446c-0.554-0.168-1.049-0.391-1.487-0.666
		c-0.439-0.277-0.79-0.634-1.053-1.073c-0.264-0.438-0.394-0.989-0.394-1.65c0-0.729,0.148-1.358,0.446-1.892
		c0.297-0.532,0.689-0.97,1.182-1.314c0.491-0.345,1.052-0.6,1.679-0.769c0.627-0.168,1.27-0.253,1.932-0.253
		c0.74,0,1.429,0.088,2.065,0.262c0.631,0.175,1.189,0.453,1.667,0.83c0.478,0.378,0.856,0.853,1.132,1.425
		c0.277,0.574,0.429,1.259,0.456,2.055h-1.821C81.737,8.421,81.363,7.669,80.722,7.204z"/>
	<path fill="#8996A0" d="M85.693,12.303c0.216-0.667,0.54-1.248,0.971-1.739c0.432-0.496,0.964-0.883,1.599-1.164
		c0.634-0.284,1.363-0.426,2.184-0.426c0.836,0,1.567,0.142,2.194,0.426c0.627,0.282,1.157,0.669,1.588,1.164
		c0.43,0.491,0.755,1.072,0.97,1.739c0.215,0.669,0.325,1.386,0.325,2.155c0,0.767-0.11,1.483-0.325,2.144
		c-0.215,0.662-0.541,1.236-0.97,1.73c-0.431,0.491-0.961,0.875-1.588,1.153c-0.627,0.276-1.358,0.413-2.194,0.413
		c-0.821,0-1.551-0.137-2.184-0.413c-0.635-0.278-1.167-0.662-1.599-1.153c-0.431-0.494-0.754-1.068-0.971-1.73
		c-0.215-0.661-0.324-1.377-0.324-2.144C85.369,13.689,85.478,12.972,85.693,12.303z M87.443,16.147
		c0.167,0.491,0.4,0.904,0.697,1.234c0.296,0.33,0.645,0.582,1.041,0.758c0.399,0.176,0.819,0.262,1.265,0.262
		c0.444,0,0.867-0.087,1.264-0.262c0.399-0.176,0.746-0.429,1.043-0.758c0.296-0.33,0.53-0.743,0.698-1.234
		c0.168-0.494,0.253-1.055,0.253-1.689c0-0.633-0.085-1.198-0.253-1.688c-0.168-0.493-0.402-0.907-0.698-1.246
		c-0.296-0.336-0.644-0.593-1.043-0.768c-0.397-0.177-0.819-0.262-1.264-0.262c-0.446,0-0.866,0.086-1.265,0.262
		c-0.397,0.175-0.745,0.432-1.041,0.768c-0.297,0.339-0.531,0.752-0.697,1.246c-0.169,0.49-0.253,1.055-0.253,1.688
		C87.19,15.092,87.274,15.654,87.443,16.147z"/>
	<path fill="#8996A0" d="M98.829,5.232v14.444h-1.72V5.232H98.829z"/>
	<path fill="#8996A0" d="M108.067,19.677v-1.659h-0.04c-0.365,0.647-0.83,1.122-1.395,1.426c-0.566,0.304-1.234,0.455-2.004,0.455
		c-0.688,0-1.259-0.09-1.719-0.273c-0.46-0.182-0.83-0.44-1.112-0.779c-0.285-0.337-0.482-0.738-0.597-1.204
		c-0.112-0.465-0.171-0.979-0.171-1.547V9.217h1.72v7.082c0,0.647,0.188,1.16,0.567,1.536c0.376,0.38,0.895,0.567,1.556,0.567
		c0.526,0,0.982-0.081,1.367-0.242c0.382-0.162,0.705-0.391,0.958-0.686c0.256-0.298,0.449-0.646,0.577-1.045
		c0.129-0.395,0.192-0.832,0.192-1.304V9.217h1.721v10.459H108.067z"/>
	<path fill="#8996A0" d="M116.458,9.217v1.52h-2.084v6.492c0,0.202,0.016,0.363,0.05,0.485c0.033,0.12,0.097,0.215,0.194,0.283
		c0.092,0.069,0.222,0.112,0.394,0.132c0.166,0.02,0.385,0.03,0.656,0.03h0.79v1.517h-1.317c-0.444,0-0.823-0.029-1.141-0.091
		c-0.319-0.061-0.576-0.171-0.77-0.335c-0.197-0.162-0.341-0.39-0.433-0.686c-0.094-0.297-0.143-0.688-0.143-1.172v-6.655h-1.778
		v-1.52h1.778V6.081h1.721v3.136H116.458z"/>
	<path fill="#8996A0" d="M118.167,7.335V5.232h1.721v2.103H118.167z M119.888,9.217v10.459h-1.721V9.217H119.888z"/>
	<path fill="#8996A0" d="M121.796,12.303c0.215-0.667,0.538-1.248,0.969-1.739c0.434-0.496,0.966-0.883,1.599-1.164
		c0.634-0.284,1.363-0.426,2.185-0.426c0.835,0,1.565,0.142,2.195,0.426c0.627,0.282,1.156,0.669,1.588,1.164
		c0.431,0.491,0.755,1.072,0.969,1.739c0.218,0.669,0.327,1.386,0.327,2.155c0,0.767-0.108,1.483-0.327,2.144
		c-0.214,0.662-0.537,1.236-0.969,1.73c-0.432,0.491-0.962,0.875-1.588,1.153c-0.63,0.276-1.359,0.413-2.195,0.413
		c-0.821,0-1.55-0.137-2.185-0.413c-0.633-0.278-1.165-0.662-1.599-1.153c-0.431-0.494-0.754-1.068-0.969-1.73
		c-0.215-0.661-0.326-1.377-0.326-2.144C121.471,13.689,121.581,12.972,121.796,12.303z M123.545,16.147
		c0.169,0.491,0.401,0.904,0.697,1.234c0.295,0.33,0.644,0.582,1.042,0.758c0.397,0.176,0.818,0.262,1.264,0.262
		c0.445,0,0.866-0.087,1.265-0.262c0.397-0.176,0.745-0.429,1.041-0.758c0.297-0.33,0.528-0.743,0.697-1.234
		c0.169-0.494,0.255-1.055,0.255-1.689c0-0.633-0.087-1.198-0.255-1.688c-0.17-0.493-0.401-0.907-0.697-1.246
		c-0.296-0.336-0.643-0.593-1.041-0.768c-0.4-0.177-0.821-0.262-1.265-0.262c-0.446,0-0.867,0.086-1.264,0.262
		c-0.398,0.175-0.747,0.432-1.042,0.768c-0.296,0.339-0.528,0.752-0.697,1.246c-0.17,0.49-0.253,1.055-0.253,1.688
		C123.292,15.092,123.375,15.654,123.545,16.147z"/>
	<path fill="#8996A0" d="M134.826,9.217v1.661h0.041c0.714-1.271,1.847-1.904,3.398-1.904c0.688,0,1.262,0.094,1.718,0.285
		c0.46,0.187,0.832,0.45,1.113,0.787c0.284,0.339,0.482,0.74,0.596,1.206c0.116,0.466,0.174,0.981,0.174,1.549v6.876h-1.719v-7.081
		c0-0.645-0.189-1.157-0.567-1.535c-0.377-0.38-0.898-0.567-1.558-0.567c-0.526,0-0.978,0.08-1.366,0.243
		c-0.383,0.162-0.705,0.391-0.962,0.686c-0.255,0.298-0.448,0.646-0.575,1.042c-0.127,0.4-0.191,0.834-0.191,1.306v5.906h-1.72
		V9.217H134.826z"/>
	<path fill="#8996A0" d="M145.331,17.34c0.161,0.263,0.374,0.473,0.636,0.627c0.264,0.155,0.561,0.267,0.889,0.334
		c0.331,0.069,0.675,0.101,1.025,0.101c0.27,0,0.551-0.02,0.848-0.059c0.298-0.042,0.569-0.115,0.819-0.225
		c0.249-0.108,0.455-0.265,0.616-0.475c0.162-0.207,0.246-0.475,0.246-0.799c0-0.444-0.172-0.782-0.508-1.012
		c-0.338-0.228-0.759-0.414-1.264-0.557c-0.505-0.14-1.054-0.268-1.65-0.382c-0.592-0.115-1.14-0.277-1.646-0.487
		c-0.507-0.209-0.927-0.503-1.265-0.879c-0.338-0.376-0.508-0.903-0.508-1.577c0-0.528,0.119-0.978,0.354-1.357
		c0.237-0.378,0.54-0.686,0.912-0.922c0.369-0.235,0.789-0.41,1.255-0.526c0.462-0.115,0.925-0.172,1.384-0.172
		c0.595,0,1.14,0.051,1.639,0.152c0.499,0.101,0.94,0.277,1.325,0.526c0.383,0.248,0.69,0.586,0.92,1.013
		c0.23,0.424,0.365,0.955,0.403,1.588h-1.717c-0.027-0.336-0.115-0.617-0.262-0.838c-0.149-0.223-0.337-0.402-0.567-0.537
		c-0.23-0.135-0.484-0.234-0.759-0.294c-0.276-0.06-0.556-0.09-0.838-0.09c-0.258,0-0.517,0.019-0.781,0.059
		c-0.26,0.041-0.502,0.112-0.718,0.213c-0.215,0.101-0.39,0.236-0.527,0.404c-0.134,0.17-0.201,0.389-0.201,0.659
		c0,0.298,0.102,0.542,0.314,0.739c0.208,0.195,0.475,0.357,0.799,0.484c0.322,0.129,0.687,0.237,1.092,0.323
		c0.404,0.088,0.809,0.181,1.214,0.275c0.43,0.094,0.851,0.209,1.264,0.342c0.413,0.136,0.777,0.314,1.093,0.536
		c0.316,0.222,0.571,0.504,0.768,0.84c0.195,0.338,0.292,0.755,0.292,1.254c0,0.634-0.132,1.159-0.395,1.578
		c-0.263,0.417-0.606,0.755-1.028,1.011c-0.425,0.259-0.906,0.436-1.438,0.536c-0.532,0.101-1.064,0.151-1.588,0.151
		c-0.581,0-1.132-0.06-1.659-0.18c-0.527-0.124-0.991-0.322-1.394-0.599c-0.403-0.276-0.729-0.64-0.971-1.091
		c-0.244-0.451-0.378-1.002-0.405-1.65h1.718C145.081,16.758,145.168,17.076,145.331,17.34z"/>
</g>
</svg>
