<?xml version="1.0" encoding="UTF-8"?>
<svg enable-background="new 0 0 0 0" version="1.1" viewBox="0 0 75.609 14.691" xml:space="preserve" xmlns="http://www.w3.org/2000/svg">

	
	
	
	
	
	
	
	<path d="m21.851 3.0572c-0.42911-0.38736-0.97738-0.58146-1.6455-0.58146-0.27045 0-0.53689 0.033321-0.79864 0.1008-0.26175 0.068308-0.49472 0.17994-0.69822 0.33738-0.20284 0.15661-0.36484 0.3682-0.48802 0.63227-0.12117 0.26407-0.18209 0.59229-0.18209 0.98548 0 0.37153 0.0877 0.67142 0.26443 0.90217 0.17539 0.23158 0.4097 0.41985 0.70358 0.5673 0.29321 0.14495 0.62526 0.2649 0.99546 0.35987 0.3702 0.09664 0.74576 0.19993 1.13 0.31156 0.38493 0.11329 0.76182 0.24574 1.1314 0.39736 0.3702 0.15078 0.70224 0.3557 0.99546 0.61394 0.29321 0.25907 0.52886 0.58479 0.70425 0.97964 0.17606 0.39236 0.26443 0.88635 0.26443 1.482 0 0.63894-0.11514 1.1879-0.34543 1.6419-0.23029 0.45567-0.52618 0.82554-0.88768 1.1121-0.36083 0.28573-0.76517 0.49482-1.211 0.62311-0.44718 0.12912-0.89035 0.1941-1.3349 0.1941-0.54158 0-1.053-0.08414-1.5364-0.25241-0.48334-0.16994-0.90642-0.42401-1.2726-0.76806-0.36618-0.34154-0.65471-0.78055-0.86692-1.3129-0.21221-0.53397-0.31731-1.1654-0.31731-1.8951h1.2177c0 0.50482 0.07966 0.94049 0.23765 1.3045 0.15732 0.36653 0.36551 0.66559 0.62258 0.90217 0.25774 0.23491 0.55697 0.41068 0.90107 0.52231 0.34208 0.11246 0.69488 0.16827 1.0557 0.16827 0.28786 0 0.57973-0.03249 0.87295-0.10163 0.29321-0.06664 0.55831-0.18327 0.79262-0.34571 0.23497-0.16244 0.42442-0.38319 0.56969-0.66476 0.14326-0.2799 0.21556-0.63977 0.21556-1.0779 0-0.41485-0.0877-0.75223-0.26309-1.0113-0.17606-0.25741-0.41104-0.46816-0.70358-0.63227-0.29455-0.16327-0.62592-0.29406-0.99546-0.39569-0.37087-0.10163-0.74776-0.20409-1.1314-0.31155-0.38426-0.10663-0.76115-0.22992-1.1307-0.37153-0.37087-0.13995-0.70224-0.32572-0.99546-0.5548-0.29388-0.23075-0.52886-0.52814-0.70492-0.89384-0.17673-0.36487-0.26376-0.82387-0.26376-1.3745 0-0.60728 0.09908-1.1313 0.29857-1.5761 0.19882-0.44317 0.46124-0.80804 0.79128-1.0946 0.3287-0.2874 0.70425-0.49982 1.124-0.6406 0.41974-0.13995 0.85019-0.21076 1.2934-0.21076 0.49538 0 0.95663 0.073307 1.3824 0.21825 0.42242 0.14578 0.79596 0.37736 1.116 0.69142 0.31999 0.31489 0.57304 0.71058 0.7578 1.1871 0.18544 0.47816 0.28719 1.0488 0.30527 1.7119h-1.219c-0.07163-0.86552-0.322-1.492-0.75111-1.8793z" fill="#fff" stroke="#004b82" stroke-linecap="round" stroke-linejoin="round" stroke-miterlimit="2.5" stroke-width=".44467" style="paint-order:normal"/>
	<path d="m25.72 7.4373c0.19105-0.54996 0.47764-1.029 0.85886-1.4339 0.38211-0.40896 0.85267-0.72806 1.4143-0.95975 0.56078-0.23417 1.2056-0.35125 1.9318-0.35125 0.73945 0 1.386 0.11708 1.9406 0.35125 0.55459 0.23252 1.0234 0.55161 1.4046 0.95975 0.38034 0.40484 0.66781 0.88389 0.85798 1.4339 0.19017 0.55161 0.28746 1.1428 0.28746 1.7769 0 0.63241-0.09729 1.2228-0.28746 1.7678-0.19017 0.54584-0.47852 1.0191-0.85798 1.4264-0.38122 0.40484-0.85001 0.72146-1.4046 0.95068-0.55459 0.22757-1.2012 0.34053-1.9406 0.34053-0.72618 0-1.3719-0.11296-1.9318-0.34053-0.56166-0.22922-1.0322-0.54584-1.4143-0.95068-0.38122-0.40732-0.66692-0.88059-0.85886-1.4264-0.19017-0.54501-0.28658-1.1354-0.28658-1.7678 0-0.63406 0.09641-1.2252 0.28658-1.7769zm1.5479 3.1695c0.14771 0.40484 0.3538 0.74537 0.6165 1.0175 0.26182 0.27209 0.57051 0.47988 0.92078 0.62499 0.35292 0.14512 0.72441 0.21603 1.1189 0.21603 0.39272 0 0.76687-0.07173 1.118-0.21603 0.35292-0.14512 0.65984-0.35372 0.92254-0.62499 0.26182-0.27209 0.46879-0.61262 0.61739-1.0175 0.1486-0.40732 0.22378-0.86988 0.22378-1.3926 0-0.52193-0.07518-0.98778-0.22378-1.3918-0.1486-0.40649-0.35557-0.74785-0.61739-1.0274-0.26181-0.27704-0.56962-0.48894-0.92254-0.63324-0.35115-0.14594-0.72441-0.21603-1.118-0.21603-0.39449 0-0.76599 0.07091-1.1189 0.21603-0.35115 0.14429-0.65896 0.3562-0.92078 0.63324-0.2627 0.27951-0.46968 0.62004-0.6165 1.0274-0.14948 0.40402-0.22378 0.86988-0.22378 1.3918 0 0.52275 0.07429 0.98613 0.22378 1.3926z" fill="#fff" stroke="#004b82" stroke-linecap="round" stroke-linejoin="round" stroke-miterlimit="2.5" stroke-width=".50851" style="paint-order:normal"/>
	<path d="m37.339 1.6067v11.909h-1.5214v-11.909z" fill="#fff" stroke="#004b82" stroke-linecap="round" stroke-linejoin="round" stroke-miterlimit="2.5" stroke-width=".50851" style="paint-order:normal"/>
	<path d="m45.51 13.517v-1.3679h-0.03539c-0.32285 0.53347-0.73414 0.92512-1.2339 1.1758-0.50063 0.25066-1.0915 0.37516-1.7726 0.37516-0.60854 0-1.1136-0.07421-1.5205-0.2251-0.40687-0.15006-0.73414-0.36279-0.98357-0.64231-0.25208-0.27787-0.42633-0.6085-0.52805-0.99273-0.09907-0.38341-0.15125-0.80721-0.15125-1.2755v-5.6719h1.5214v5.8393c0 0.53347 0.16629 0.95645 0.50152 1.2665 0.33258 0.31332 0.79164 0.46751 1.3763 0.46751 0.46525 0 0.86859-0.06679 1.2091-0.19954 0.33788-0.13357 0.62358-0.32239 0.84736-0.56563 0.22643-0.24571 0.39714-0.53264 0.51036-0.86163 0.11411-0.32569 0.16982-0.68601 0.16982-1.0752v-4.8713h1.5222v8.6237h-1.4329z" fill="#fff" stroke="#004b82" stroke-linecap="round" stroke-linejoin="round" stroke-miterlimit="2.5" stroke-width=".50851" style="paint-order:normal"/>
	<path d="m52.932 4.8925v1.2533h-1.8433v5.3528c0 0.16655 0.01416 0.2993 0.04422 0.3999 0.02919 0.09894 0.0858 0.17727 0.17159 0.23334 0.08138 0.05689 0.19636 0.09235 0.3485 0.10884 0.14683 0.01649 0.34054 0.02474 0.58024 0.02474h0.69876v1.2508h-1.1649c-0.39272 0-0.72795-0.02391-1.0092-0.07503-0.28216-0.0503-0.50948-0.14099-0.68107-0.27622-0.17425-0.13357-0.30162-0.32156-0.38299-0.56563-0.08314-0.24488-0.12648-0.56728-0.12648-0.96635v-5.4872h-1.5727v-1.2533h1.5727v-2.5857h1.5222v2.5857z" fill="#fff" stroke="#004b82" stroke-linecap="round" stroke-linejoin="round" stroke-miterlimit="2.5" stroke-width=".50851" style="paint-order:normal"/>
	<path d="m54.444 3.3407v-1.734h1.5222v1.734zm1.5222 1.5518v8.6237h-1.5222v-8.6237z" fill="#fff" stroke="#004b82" stroke-linecap="round" stroke-linejoin="round" stroke-miterlimit="2.5" stroke-width=".50851" style="paint-order:normal"/>
	<path d="m57.654 7.4373c0.19017-0.54996 0.47587-1.029 0.85709-1.4339 0.38388-0.40896 0.85444-0.72806 1.4143-0.95975 0.56078-0.23417 1.2056-0.35125 1.9327-0.35125 0.73857 0 1.3843 0.11708 1.9415 0.35125 0.55459 0.23252 1.0225 0.55161 1.4046 0.95975 0.38122 0.40484 0.66781 0.88389 0.85709 1.4339 0.19282 0.55161 0.28923 1.1428 0.28923 1.7769 0 0.63241-0.09552 1.2228-0.28923 1.7678-0.18928 0.54584-0.47498 1.0191-0.85709 1.4264-0.38211 0.40484-0.8509 0.72146-1.4046 0.95068-0.55724 0.22757-1.2021 0.34053-1.9415 0.34053-0.72618 0-1.371-0.11296-1.9327-0.34053-0.55989-0.22922-1.0305-0.54584-1.4143-0.95068-0.38122-0.40732-0.66692-0.88059-0.85709-1.4264-0.19017-0.54501-0.28835-1.1354-0.28835-1.7678 8.85e-4 -0.63406 0.09818-1.2252 0.28835-1.7769zm1.547 3.1695c0.14948 0.40484 0.35469 0.74537 0.6165 1.0175 0.26093 0.27209 0.56962 0.47988 0.92166 0.62499 0.35115 0.14512 0.72353 0.21603 1.118 0.21603 0.39361 0 0.76599-0.07173 1.1189-0.21603 0.35115-0.14512 0.65896-0.35372 0.92077-0.62499 0.2627-0.27209 0.46702-0.61262 0.6165-1.0175 0.14948-0.40732 0.22555-0.86988 0.22555-1.3926 0-0.52193-0.07695-0.98778-0.22555-1.3918-0.15037-0.40649-0.35469-0.74785-0.6165-1.0274-0.26182-0.27704-0.56874-0.48894-0.92077-0.63324-0.3538-0.14594-0.72618-0.21603-1.1189-0.21603-0.39449 0-0.76687 0.07091-1.118 0.21603-0.35204 0.14429-0.66073 0.3562-0.92166 0.63324-0.26182 0.27951-0.46702 0.62004-0.6165 1.0274-0.15037 0.40402-0.22378 0.86988-0.22378 1.3918 0 0.52275 0.07342 0.98613 0.22378 1.3926z" fill="#fff" stroke="#004b82" stroke-linecap="round" stroke-linejoin="round" stroke-miterlimit="2.5" stroke-width=".50851" style="paint-order:normal"/>
	<path d="m69.179 4.8925v1.3695h0.03626c0.63154-1.048 1.6337-1.5699 3.0056-1.5699 0.60854 0 1.1163 0.077505 1.5196 0.23499 0.40688 0.15419 0.73591 0.37104 0.98446 0.6489 0.2512 0.27952 0.42633 0.61015 0.52717 0.99438 0.10261 0.38423 0.1539 0.80886 0.1539 1.2772v5.6695h-1.5205v-5.8385c0-0.53182-0.16717-0.95398-0.50152-1.2656-0.33346-0.31332-0.79429-0.46751-1.3781-0.46751-0.46525 0-0.86505 0.06596-1.2082 0.20036-0.33877 0.13357-0.62358 0.32239-0.8509 0.56563-0.22555 0.24571-0.39626 0.53264-0.50859 0.85916-0.11234 0.32981-0.16894 0.68766-0.16894 1.0768v4.8697h-1.5214v-8.6246z" fill="#fff" stroke="#004b82" stroke-linecap="round" stroke-linejoin="round" stroke-miterlimit="2.5" stroke-width=".50851" style="paint-order:normal"/>


<polygon transform="matrix(.78075 0 0 .74405 0 .04326)" points="0 19.687 19.687 19.687 19.687 10.446 9.241 10.446 9.241 0 0 0" fill="#004b82"/><path d="m7.9741 3.537v-3.4337h3.1236v3.9424h4.0541v2.9249h-7.1777z" fill="#822e00" stroke-width=".065007"/><path d="m11.774 1.4951v-1.4951h3.3715v2.9902h-3.3715z" fill="#826f00" stroke-width=".069026"/><g transform="matrix(.77024 0 0 .74692 27.316 6.8943)" fill="#f9f9f9"><path d="m-22.467 5.6422v-2.344l1.3614 0.01947c1.1813 0.01688 1.4098 0.03094 1.7275 0.10627 0.48954 0.11608 0.76034 0.22735 1.1072 0.45494 1.4379 0.9435 1.218 3.0071-0.39792 3.7337-0.65877 0.29615-0.90576 0.33205-2.4367 0.3541l-1.3614 0.01961zm2.7804 1.7277c0.36408-0.083 0.78598-0.27834 1.0186-0.47158 0.38417-0.31915 0.59787-0.97595 0.50377-1.5483-0.09822-0.59742-0.41641-1.0004-0.98518-1.2477-0.4829-0.20996-0.75637-0.25543-1.6816-0.27958l-0.85802-0.02238v3.6835l0.85802-0.02435c0.53474-0.01518 0.96595-0.04896 1.1444-0.08967z" stroke-width=".036807"/><path d="m-29.247 5.4182v-2.6189l1.4073 0.02175c1.2211 0.01887 1.4573 0.03458 1.7857 0.11874 0.50604 0.12968 0.78596 0.25401 1.1446 0.50831 1.4864 1.0542 1.259 3.3599-0.41133 4.1715-0.68097 0.3309-0.93628 0.371-2.5188 0.39564l-1.4073 0.02191zm2.8741 1.9305c0.37635-0.09275 0.81246-0.31098 1.053-0.5269 0.39711-0.35657 0.61802-1.0904 0.52074-1.7299-0.10153-0.66749-0.43044-1.1177-1.0184-1.394-0.49918-0.2346-0.78186-0.2854-1.7383-0.31237l-0.88694-0.02502v4.1156l0.88694-0.02721c0.55276-0.01695 0.9985-0.05471 1.183-0.10018z" stroke-width=".039498"/><text x="-33.567463" y="8.0460634" xml:space="preserve"><tspan x="-33.567463" y="8.0460634" fill="#f9f9f9" font-family="arial">I</tspan></text></g></svg>
