<?xml version="1.0" encoding="UTF-8"?>
<svg enable-background="new 0 0 0 0" version="1.1" viewBox="0 0 105 9" xml:space="preserve" xmlns="http://www.w3.org/2000/svg">

	<polygon points="14.464 0 10.446 0 10.446 9.241 19.687 9.241 19.687 5.223 14.464 5.223" fill="#004B82 "/>
	<polygon points="9.241 0 0 0 0 19.687 19.687 19.687 19.687 10.446 9.241 10.446" fill="#003145"/>
	<rect x="15.669" width="4.018" height="4.018" fill="#ef0454"/>
	
	
	
	
	<path d="m29.062 5.4486c-0.641-0.465-1.46-0.698-2.458-0.698-0.404 0-0.802 0.04-1.193 0.121-0.391 0.082-0.739 0.216-1.043 0.405-0.303 0.188-0.545 0.442-0.729 0.759-0.181 0.317-0.272 0.711-0.272 1.183 0 0.446 0.131 0.806 0.395 1.083 0.262 0.278 0.612 0.504 1.051 0.681 0.438 0.174 0.934 0.318 1.487 0.432 0.553 0.116 1.114 0.24 1.688 0.374 0.575 0.136 1.138 0.295 1.69 0.477 0.553 0.181 1.049 0.427 1.487 0.737 0.438 0.311 0.79 0.702 1.052 1.176 0.263 0.471 0.395 1.064 0.395 1.779 0 0.767-0.172 1.426-0.516 1.971-0.344 0.547-0.786 0.991-1.326 1.335-0.539 0.343-1.143 0.594-1.809 0.748-0.668 0.155-1.33 0.233-1.994 0.233-0.809 0-1.573-0.101-2.295-0.303-0.722-0.204-1.354-0.509-1.901-0.922-0.547-0.41-0.978-0.937-1.295-1.576-0.317-0.641-0.474-1.399-0.474-2.275h1.819c0 0.606 0.119 1.129 0.355 1.566 0.235 0.44 0.546 0.799 0.93 1.083 0.385 0.282 0.832 0.493 1.346 0.627 0.511 0.135 1.038 0.202 1.577 0.202 0.43 0 0.866-0.039 1.304-0.122 0.438-0.08 0.834-0.22 1.184-0.415 0.351-0.195 0.634-0.46 0.851-0.798 0.214-0.336 0.322-0.768 0.322-1.294 0-0.498-0.131-0.903-0.393-1.214-0.263-0.309-0.614-0.562-1.051-0.759-0.44-0.196-0.935-0.353-1.487-0.475-0.554-0.122-1.117-0.245-1.69-0.374-0.574-0.128-1.137-0.276-1.689-0.446-0.554-0.168-1.049-0.391-1.487-0.666-0.439-0.277-0.79-0.634-1.053-1.073-0.264-0.438-0.394-0.989-0.394-1.65 0-0.729 0.148-1.358 0.446-1.892 0.297-0.532 0.689-0.97 1.182-1.314 0.491-0.345 1.052-0.6 1.679-0.769 0.627-0.168 1.27-0.253 1.932-0.253 0.74 0 1.429 0.088 2.065 0.262 0.631 0.175 1.189 0.453 1.667 0.83 0.478 0.378 0.856 0.853 1.132 1.425 0.277 0.574 0.429 1.259 0.456 2.055h-1.821c-0.107-1.039-0.481-1.791-1.122-2.256z" fill="#8996a0"/>
	<path d="m34.033 10.548c0.216-0.667 0.54-1.248 0.971-1.739 0.432-0.496 0.964-0.883 1.599-1.164 0.634-0.284 1.363-0.426 2.184-0.426 0.836 0 1.567 0.142 2.194 0.426 0.627 0.282 1.157 0.669 1.588 1.164 0.43 0.491 0.755 1.072 0.97 1.739 0.215 0.669 0.325 1.386 0.325 2.155 0 0.767-0.11 1.483-0.325 2.144-0.215 0.662-0.541 1.236-0.97 1.73-0.431 0.491-0.961 0.875-1.588 1.153-0.627 0.276-1.358 0.413-2.194 0.413-0.821 0-1.551-0.137-2.184-0.413-0.635-0.278-1.167-0.662-1.599-1.153-0.431-0.494-0.754-1.068-0.971-1.73-0.215-0.661-0.324-1.377-0.324-2.144 0-0.769 0.109-1.486 0.324-2.155zm1.75 3.844c0.167 0.491 0.4 0.904 0.697 1.234 0.296 0.33 0.645 0.582 1.041 0.758 0.399 0.176 0.819 0.262 1.265 0.262 0.444 0 0.867-0.087 1.264-0.262 0.399-0.176 0.746-0.429 1.043-0.758 0.296-0.33 0.53-0.743 0.698-1.234 0.168-0.494 0.253-1.055 0.253-1.689 0-0.633-0.085-1.198-0.253-1.688-0.168-0.493-0.402-0.907-0.698-1.246-0.296-0.336-0.644-0.593-1.043-0.768-0.397-0.177-0.819-0.262-1.264-0.262-0.446 0-0.866 0.086-1.265 0.262-0.397 0.175-0.745 0.432-1.041 0.768-0.297 0.339-0.531 0.752-0.697 1.246-0.169 0.49-0.253 1.055-0.253 1.688 0 0.634 0.084 1.196 0.253 1.689z" fill="#8996a0"/>
	<path d="m47.169 3.4766v14.444h-1.72v-14.444z" fill="#8996a0"/>
	<path d="m56.407 17.922v-1.659h-0.04c-0.365 0.647-0.83 1.122-1.395 1.426-0.566 0.304-1.234 0.455-2.004 0.455-0.688 0-1.259-0.09-1.719-0.273-0.46-0.182-0.83-0.44-1.112-0.779-0.285-0.337-0.482-0.738-0.597-1.204-0.112-0.465-0.171-0.979-0.171-1.547v-6.879h1.72v7.082c0 0.647 0.188 1.16 0.567 1.536 0.376 0.38 0.895 0.567 1.556 0.567 0.526 0 0.982-0.081 1.367-0.242 0.382-0.162 0.705-0.391 0.958-0.686 0.256-0.298 0.449-0.646 0.577-1.045 0.129-0.395 0.192-0.832 0.192-1.304v-5.908h1.721v10.459h-1.62z" fill="#8996a0"/>
	<path d="m64.798 7.4616v1.52h-2.084v6.492c0 0.202 0.016 0.363 0.05 0.485 0.033 0.12 0.097 0.215 0.194 0.283 0.092 0.069 0.222 0.112 0.394 0.132 0.166 0.02 0.385 0.03 0.656 0.03h0.79v1.517h-1.317c-0.444 0-0.823-0.029-1.141-0.091-0.319-0.061-0.576-0.171-0.77-0.335-0.197-0.162-0.341-0.39-0.433-0.686-0.094-0.297-0.143-0.688-0.143-1.172v-6.655h-1.778v-1.52h1.778v-3.136h1.721v3.136z" fill="#8996a0"/>
	<path d="m66.507 5.5796v-2.103h1.721v2.103h-1.721zm1.721 1.882v10.459h-1.721v-10.459z" fill="#8996a0"/>
	<path d="m70.136 10.548c0.215-0.667 0.538-1.248 0.969-1.739 0.434-0.496 0.966-0.883 1.599-1.164 0.634-0.284 1.363-0.426 2.185-0.426 0.835 0 1.565 0.142 2.195 0.426 0.627 0.282 1.156 0.669 1.588 1.164 0.431 0.491 0.755 1.072 0.969 1.739 0.218 0.669 0.327 1.386 0.327 2.155 0 0.767-0.108 1.483-0.327 2.144-0.214 0.662-0.537 1.236-0.969 1.73-0.432 0.491-0.962 0.875-1.588 1.153-0.63 0.276-1.359 0.413-2.195 0.413-0.821 0-1.55-0.137-2.185-0.413-0.633-0.278-1.165-0.662-1.599-1.153-0.431-0.494-0.754-1.068-0.969-1.73-0.215-0.661-0.326-1.377-0.326-2.144 1e-3 -0.769 0.111-1.486 0.326-2.155zm1.749 3.844c0.169 0.491 0.401 0.904 0.697 1.234 0.295 0.33 0.644 0.582 1.042 0.758 0.397 0.176 0.818 0.262 1.264 0.262 0.445 0 0.866-0.087 1.265-0.262 0.397-0.176 0.745-0.429 1.041-0.758 0.297-0.33 0.528-0.743 0.697-1.234 0.169-0.494 0.255-1.055 0.255-1.689 0-0.633-0.087-1.198-0.255-1.688-0.17-0.493-0.401-0.907-0.697-1.246-0.296-0.336-0.643-0.593-1.041-0.768-0.4-0.177-0.821-0.262-1.265-0.262-0.446 0-0.867 0.086-1.264 0.262-0.398 0.175-0.747 0.432-1.042 0.768-0.296 0.339-0.528 0.752-0.697 1.246-0.17 0.49-0.253 1.055-0.253 1.688 0 0.634 0.083 1.196 0.253 1.689z" fill="#8996a0"/>
	<path d="m83.166 7.4616v1.661h0.041c0.714-1.271 1.847-1.904 3.398-1.904 0.688 0 1.262 0.094 1.718 0.285 0.46 0.187 0.832 0.45 1.113 0.787 0.284 0.339 0.482 0.74 0.596 1.206 0.116 0.466 0.174 0.981 0.174 1.549v6.876h-1.719v-7.081c0-0.645-0.189-1.157-0.567-1.535-0.377-0.38-0.898-0.567-1.558-0.567-0.526 0-0.978 0.08-1.366 0.243-0.383 0.162-0.705 0.391-0.962 0.686-0.255 0.298-0.448 0.646-0.575 1.042-0.127 0.4-0.191 0.834-0.191 1.306v5.906h-1.72v-10.46z" fill="#8996a0"/>
<path d="m12.924 15.487v-2.344l1.3614 0.01947c1.1813 0.01688 1.4098 0.03094 1.7275 0.10627 0.48954 0.11608 0.76034 0.22735 1.1072 0.45494 1.4379 0.9435 1.218 3.0071-0.39792 3.7337-0.65877 0.29615-0.90576 0.33205-2.4367 0.3541l-1.3614 0.01961zm2.7804 1.7277c0.36408-0.083 0.78598-0.27834 1.0186-0.47158 0.38417-0.31915 0.59787-0.97595 0.50377-1.5483-0.09822-0.59742-0.41641-1.0004-0.98518-1.2477-0.4829-0.20996-0.75637-0.25543-1.6816-0.27958l-0.85802-0.02238v3.6835l0.85802-0.02435c0.53474-0.01518 0.96595-0.04896 1.1444-0.08967z" fill="#eff2f2" stroke-width=".036807"/>

<path d="m6.1441 15.263v-2.6189l1.4073 0.02175c1.2211 0.01887 1.4573 0.03458 1.7857 0.11874 0.50604 0.12968 0.78596 0.25401 1.1446 0.50831 1.4864 1.0542 1.259 3.3599-0.41133 4.1715-0.68097 0.3309-0.93628 0.371-2.5188 0.39564l-1.4073 0.02191zm2.8741 1.9305c0.37635-0.09275 0.81246-0.31098 1.053-0.5269 0.39711-0.35657 0.61802-1.0904 0.52074-1.7299-0.10153-0.66749-0.43044-1.1177-1.0184-1.394-0.49918-0.2346-0.78186-0.2854-1.7383-0.31237l-0.88694-0.02502v4.1156l0.88694-0.02721c0.55276-0.01695 0.9985-0.05471 1.183-0.10018z" fill="#eff2f2" stroke-width=".039498"/><text x="1.8238213" y="17.89082" fill="#000000" xml:space="preserve"><tspan x="1.8238213" y="17.89082" fill="#ffffff" font-family="arial">I</tspan></text></svg>
